<?xml version="1.0" standalone="no"?>
<!DOCTYPE svg PUBLIC "-//W3C//DTD SVG 20010904//EN"
 "http://www.w3.org/TR/2001/REC-SVG-20010904/DTD/svg10.dtd">
<svg version="1.0" xmlns="http://www.w3.org/2000/svg"
 width="512.000000pt" height="512.000000pt" viewBox="0 0 512.000000 512.000000"
 preserveAspectRatio="xMidYMid meet">
<metadata>
Created by potrace 1.11, written by Peter Selinger 2001-2013
</metadata>
<g transform="translate(0.000000,512.000000) scale(0.100000,-0.100000)"
fill="#000000" stroke="none">
<path d="M3160 4419 c-36 -12 -74 -27 -85 -35 -11 -8 -25 -14 -32 -14 -16 0
-100 -56 -141 -94 -44 -41 -77 -113 -103 -227 -26 -114 -31 -183 -14 -218 44
-89 55 -131 34 -131 -6 0 -28 -13 -48 -28 -20 -16 -52 -37 -71 -48 -19 -10
-39 -25 -43 -31 -4 -7 -12 -13 -17 -13 -5 0 -43 -23 -86 -51 -74 -49 -79 -51
-123 -43 -91 16 -352 1 -411 -24 -8 -3 -19 -6 -25 -7 -23 -2 -83 -37 -120 -70
-22 -20 -96 -89 -165 -154 -166 -157 -302 -282 -326 -302 -10 -9 -28 -27 -40
-40 -12 -13 -42 -42 -67 -64 -26 -22 -47 -44 -47 -48 0 -11 44 3 48 14 2 5 19
9 38 9 24 0 43 8 59 24 14 14 38 33 55 42 16 10 30 21 30 25 0 3 33 21 73 38
39 18 81 37 93 43 46 22 87 16 124 -18 l35 -33 43 29 c23 16 42 25 42 19 0 -8
5 -7 15 1 10 9 15 9 15 1 0 -6 6 -11 13 -11 6 0 25 -7 41 -15 30 -16 56 -7 56
19 0 24 68 107 136 166 79 69 214 164 214 151 0 -5 -10 -15 -22 -24 -13 -8
-37 -28 -55 -43 -57 -53 -88 -78 -135 -117 -27 -20 -48 -42 -48 -47 0 -12 27
5 230 139 80 53 153 100 162 106 157 91 211 134 237 187 44 88 227 205 355
227 211 38 439 -11 601 -128 100 -72 212 -215 235 -301 28 -104 37 -178 28
-235 -5 -27 -10 -62 -13 -77 -8 -53 -58 -139 -115 -199 -55 -59 -60 -61 -94
-55 l-37 7 64 62 c125 122 166 270 125 457 -11 50 -98 182 -162 246 -101 99
-226 159 -389 184 -141 21 -323 -17 -417 -88 -60 -45 -139 -131 -156 -170 -70
-158 -62 -309 22 -453 39 -66 127 -160 187 -201 36 -24 37 -26 15 -32 -39 -10
-53 -7 -84 22 -17 15 -44 38 -60 52 -16 14 -41 40 -56 58 -29 35 -28 35 -268
47 -69 4 -156 10 -193 14 -42 5 -70 4 -74 -2 -8 -13 -14 -110 -13 -218 0 -82
-1 -87 -22 -93 -49 -13 -49 -15 -42 134 6 126 5 140 -9 140 -10 0 -17 -4 -17
-10 0 -5 -4 -10 -8 -10 -11 0 -218 -138 -288 -191 -51 -39 -52 -41 -59 -106
-4 -37 -9 -73 -12 -81 -5 -12 1 -13 33 -8 21 4 53 9 69 11 17 3 53 9 80 14 28
5 77 12 110 15 33 4 74 11 90 15 17 5 57 13 90 17 75 10 72 9 180 29 49 9 102
17 117 17 16 1 28 4 28 8 0 4 17 7 38 8 42 1 148 18 201 31 20 5 63 12 96 16
33 3 94 12 135 20 41 8 120 21 175 30 55 9 111 18 125 21 14 2 32 0 40 -6 13
-9 13 -11 0 -20 -13 -8 -13 -10 0 -10 25 0 -3 -20 -35 -24 -17 -2 -64 -9 -105
-15 -104 -14 -208 -29 -320 -47 -52 -9 -158 -24 -235 -34 -77 -11 -171 -23
-210 -29 -38 -5 -86 -12 -105 -15 -19 -2 -45 -7 -56 -9 -12 -3 -66 -11 -120
-17 -55 -7 -110 -15 -124 -17 -14 -3 -59 -9 -100 -14 -41 -5 -111 -16 -156
-24 -44 -8 -94 -15 -111 -15 -40 0 -49 -13 -58 -80 -4 -30 -9 -64 -12 -75 -2
-11 -6 -31 -8 -45 -2 -14 -24 -140 -49 -280 -26 -140 -46 -260 -46 -266 0 -8
63 -14 208 -18 162 -5 214 -10 237 -23 17 -9 154 -98 305 -198 151 -100 336
-221 410 -270 150 -98 389 -256 405 -268 5 -4 60 -39 120 -79 61 -39 168 -109
238 -156 l128 -85 26 24 c40 36 85 80 254 244 164 159 514 493 640 612 88 82
73 79 352 89 176 6 179 7 173 28 -3 11 -12 52 -21 90 -9 38 -19 76 -24 85 -5
9 -12 39 -16 66 -4 28 -12 56 -17 63 -6 6 -8 12 -4 12 3 0 1 11 -4 25 -10 26
-20 67 -24 97 -1 10 -5 21 -9 24 -4 4 -7 17 -7 29 0 12 -3 25 -7 29 -4 4 -16
40 -26 79 -14 59 -37 147 -51 202 -17 63 -31 79 -72 88 -53 10 -71 14 -124 28
-25 6 -54 12 -65 14 -11 2 -40 9 -65 15 -140 35 -129 30 -136 69 -3 20 -8 45
-12 56 -3 11 -6 27 -8 35 -3 25 -14 82 -26 136 l-11 52 -66 7 c-36 4 -74 9
-83 11 -10 2 -26 6 -35 8 -10 3 -34 5 -54 5 l-37 1 4 118 c6 158 -25 276 -104
402 -51 80 -185 210 -267 256 -69 40 -70 41 -68 80 2 21 9 55 17 74 8 19 21
56 28 81 14 45 14 47 -24 125 -20 43 -37 85 -38 92 0 6 -4 12 -10 12 -5 0 -10
8 -11 18 0 9 -21 60 -47 112 -41 81 -53 98 -94 123 -65 40 -156 46 -248 16z
m-1000 -1039 c0 -5 -4 -10 -10 -10 -5 0 -10 5 -10 10 0 6 5 10 10 10 6 0 10
-4 10 -10z m65 0 c3 -5 1 -10 -4 -10 -6 0 -11 5 -11 10 0 6 2 10 4 10 3 0 8
-4 11 -10z m95 0 c0 -5 -7 -10 -16 -10 -8 0 -12 5 -9 10 3 6 10 10 16 10 5 0
9 -4 9 -10z m26 -35 c-11 -8 -22 -12 -25 -9 -6 6 19 24 34 24 6 -1 1 -7 -9
-15z m-161 -5 c3 -5 1 -10 -4 -10 -6 0 -11 5 -11 10 0 6 2 10 4 10 3 0 8 -4
11 -10z m40 0 c3 -5 1 -10 -4 -10 -6 0 -11 5 -11 10 0 6 2 10 4 10 3 0 8 -4
11 -10z m-295 -24 c0 -3 -4 -8 -10 -11 -5 -3 -10 -1 -10 4 0 6 5 11 10 11 6 0
10 -2 10 -4z m360 -16 c0 -5 -5 -10 -11 -10 -5 0 -7 5 -4 10 3 6 8 10 11 10 2
0 4 -4 4 -10z m-460 -100 c0 -5 -4 -10 -9 -10 -6 0 -13 5 -16 10 -3 6 1 10 9
10 9 0 16 -4 16 -10z m330 6 c0 -3 -4 -8 -10 -11 -5 -3 -10 -1 -10 4 0 6 5 11
10 11 6 0 10 -2 10 -4z m-380 -60 c0 -2 -7 -7 -16 -10 -8 -3 -12 -2 -9 4 6 10
25 14 25 6z m2395 -319 c22 -3 47 -5 56 -6 15 -1 31 -53 44 -141 2 -8 6 -34
10 -57 7 -39 6 -43 -13 -43 -27 0 -29 4 -36 75 -4 33 -10 78 -14 100 l-7 40
-65 2 c-97 4 -170 13 -170 22 0 23 42 24 195 8z m-338 -283 c-3 -3 -12 -4 -19
-1 -8 3 -5 6 6 6 11 1 17 -2 13 -5z m-42 -24 c3 -5 1 -10 -4 -10 -6 0 -11 5
-11 10 0 6 2 10 4 10 3 0 8 -4 11 -10z m-325 -30 c0 -5 -2 -10 -4 -10 -3 0 -8
5 -11 10 -3 6 -1 10 4 10 6 0 11 -4 11 -10z m-237 -32 c53 -59 76 -102 81
-153 31 -300 30 -278 7 -323 -22 -43 -23 -63 -4 -97 72 -132 68 -115 78 -305
3 -63 10 -155 15 -205 4 -49 8 -97 8 -105 1 -8 3 -24 5 -35 2 -11 3 -23 0 -27
-3 -6 -121 57 -133 71 -3 4 -18 15 -33 24 -27 18 -28 21 -24 87 2 38 1 72 -4
77 -4 4 -9 79 -12 167 l-4 159 -33 13 c-18 8 -40 14 -49 14 -9 0 -29 7 -45 15
-21 11 -33 12 -40 5 -7 -7 -12 -78 -14 -183 -2 -95 -5 -178 -7 -185 -3 -9 -22
-3 -66 20 l-61 33 6 140 c3 77 8 219 11 315 9 302 16 484 18 486 1 1 49 5 107
9 58 4 107 9 109 11 15 15 58 0 84 -28z m822 22 c3 -5 1 -10 -4 -10 -6 0 -11
5 -11 10 0 6 2 10 4 10 3 0 8 -4 11 -10z m125 0 c0 -5 -5 -10 -11 -10 -5 0 -7
5 -4 10 3 6 8 10 11 10 2 0 4 -4 4 -10z m157 -16 c-3 -3 -12 -4 -19 -1 -8 3
-5 6 6 6 11 1 17 -2 13 -5z m-670 -16 c4 10 8 10 19 1 11 -9 14 -9 14 1 0 10
4 10 16 -1 12 -10 17 -10 23 0 6 9 19 1 47 -28 26 -28 44 -39 56 -35 18 5 26
-11 9 -18 -4 -1 -2 -37 6 -78 8 -41 20 -111 27 -155 7 -44 16 -88 20 -98 5 -9
6 -29 3 -43 -3 -16 0 -24 7 -21 7 3 11 -18 12 -65 1 -44 6 -73 14 -78 9 -6 9
-9 0 -15 -9 -6 -9 -9 -1 -15 7 -4 15 -44 18 -93 4 -69 2 -92 -10 -110 -9 -13
-19 -40 -22 -61 -4 -20 -13 -36 -20 -36 -8 0 -27 -11 -43 -25 -17 -14 -35 -25
-40 -25 -6 0 -14 -9 -17 -20 -3 -11 -11 -20 -16 -20 -5 0 -15 -5 -22 -10 -7
-6 -33 -27 -59 -47 -40 -30 -50 -34 -63 -23 -11 9 -13 16 -6 23 6 6 7 15 2 21
-5 6 -12 61 -16 121 -3 61 -11 112 -16 113 -6 3 -5 10 2 18 7 9 8 14 1 14 -6
0 -10 13 -10 29 1 15 -2 33 -6 39 -3 6 -2 14 4 17 7 4 8 11 2 18 -6 7 -13 62
-17 122 -4 61 -10 112 -14 115 -7 6 -7 8 -15 134 -13 191 -19 246 -29 246 -5
0 -4 7 3 15 9 10 9 15 1 15 -6 0 -11 11 -11 25 0 23 4 25 44 25 25 0 48 4 51
10 4 6 14 5 27 -3 16 -10 22 -9 25 1z m183 2 c0 -5 -4 -10 -9 -10 -6 0 -13 5
-16 10 -3 6 1 10 9 10 9 0 16 -4 16 -10z m250 6 c0 -3 -4 -8 -10 -11 -5 -3
-10 -1 -10 4 0 6 5 11 10 11 6 0 10 -2 10 -4z m-1314 -123 c-4 -60 -9 -175
-12 -258 -7 -266 -11 -294 -36 -315 -13 -11 -29 -19 -35 -20 -7 0 -13 -4 -13
-10 0 -18 -33 -10 -106 26 -54 26 -79 46 -99 76 l-27 41 7 216 c7 188 9 240
17 299 1 6 11 12 22 13 12 0 33 3 49 5 17 3 27 0 28 -8 2 -18 -3 -135 -7 -183
-2 -22 -6 -99 -10 -172 l-7 -132 49 -14 49 -14 2 46 c1 25 7 89 13 141 8 75
19 265 20 347 0 12 25 19 74 22 l29 1 -7 -107z m1214 87 c8 -5 11 -12 7 -16
-4 -4 0 -18 8 -31 10 -15 12 -23 4 -23 -8 0 -8 -4 -1 -12 10 -14 20 -50 27
-106 2 -18 9 -40 16 -48 7 -9 8 -14 1 -14 -7 0 -5 -10 4 -27 7 -16 14 -40 14
-55 0 -16 4 -28 8 -28 4 0 8 -8 9 -17 6 -65 30 -157 42 -161 12 -4 13 8 8 67
-3 39 -9 77 -14 84 -4 6 -9 21 -10 32 -7 52 -26 151 -31 160 -3 5 -7 23 -9 40
-2 17 -9 54 -17 83 -9 35 -10 54 -2 62 13 13 46 13 46 0 0 -5 6 -7 13 -5 28
11 54 -33 62 -106 3 -29 11 -59 17 -66 6 -7 8 -22 5 -33 -3 -11 -2 -22 3 -25
4 -2 10 -32 14 -66 4 -34 11 -69 16 -78 5 -9 13 -42 18 -74 8 -51 6 -63 -17
-112 -14 -30 -32 -55 -38 -55 -7 0 -13 -4 -13 -10 0 -5 -15 -16 -34 -24 -18
-8 -36 -18 -40 -24 -7 -12 -46 -4 -46 10 0 6 -6 6 -14 -1 -12 -10 -15 -6 -21
21 -4 18 -11 38 -15 43 -5 6 -11 30 -13 55 -10 80 -20 135 -27 145 -4 6 -10
30 -14 55 -9 59 -14 84 -16 90 -1 3 -2 9 -1 14 1 4 -2 13 -7 20 -5 6 -12 35
-15 65 -4 30 -12 58 -19 63 -10 6 -10 8 1 8 11 0 11 3 1 15 -7 8 -10 21 -7 29
3 8 3 17 -1 20 -3 4 -6 15 -7 26 -1 17 5 20 44 20 25 0 53 -4 61 -10z m-165
-10 c3 -5 -1 -10 -9 -10 -9 0 -16 5 -16 10 0 6 4 10 9 10 6 0 13 -4 16 -10z
m535 0 c0 -5 -7 -10 -15 -10 -8 0 -15 5 -15 10 0 6 7 10 15 10 8 0 15 -4 15
-10z m-80 -31 c0 -8 6 -7 17 2 11 9 18 10 20 3 2 -6 16 -9 31 -6 38 5 64 -26
60 -70 -2 -22 -8 -33 -18 -32 -11 1 -15 -7 -14 -25 2 -48 15 -72 37 -69 14 2
26 -7 38 -27 27 -47 24 -70 -13 -89 -18 -8 -28 -16 -22 -16 6 0 14 -22 18 -50
5 -40 11 -50 26 -51 11 -1 26 -2 33 -3 13 -1 24 -28 26 -64 1 -22 -1 -23 -90
-20 l-92 3 -3 35 c-2 19 -6 53 -10 75 -3 22 -6 51 -7 65 -1 14 -5 28 -10 31
-4 3 -10 23 -12 45 -13 113 -18 140 -26 150 -4 5 -11 36 -14 67 -5 48 -4 57 9
57 9 0 16 -5 16 -11z m-1975 -15 c23 -15 25 -22 25 -96 0 -87 -13 -119 -61
-144 -15 -7 -44 -14 -63 -14 -49 0 -61 -17 -75 -107 -18 -113 -28 -133 -61
-133 -65 0 -71 18 -46 132 8 35 17 92 21 128 4 36 13 87 21 114 8 27 14 65 14
83 0 18 3 33 8 34 63 4 138 12 141 15 10 10 54 3 76 -12z m1185 -18 c0 -3 -4
-8 -10 -11 -5 -3 -10 -1 -10 4 0 6 5 11 10 11 6 0 10 -2 10 -4z m380 -6 c0 -5
-2 -10 -4 -10 -3 0 -8 5 -11 10 -3 6 -1 10 4 10 6 0 11 -4 11 -10z m630 -34
c0 -3 -4 -8 -10 -11 -5 -3 -10 -1 -10 4 0 6 5 11 10 11 6 0 10 -2 10 -4z m145
-46 c3 -5 1 -10 -4 -10 -6 0 -11 5 -11 10 0 6 2 10 4 10 3 0 8 -4 11 -10z
m-1200 -40 c3 -5 1 -10 -4 -10 -6 0 -11 5 -11 10 0 6 2 10 4 10 3 0 8 -4 11
-10z m985 0 c0 -5 -5 -10 -11 -10 -5 0 -7 5 -4 10 3 6 8 10 11 10 2 0 4 -4 4
-10z m150 -110 c0 -5 -5 -10 -11 -10 -5 0 -7 5 -4 10 3 6 8 10 11 10 2 0 4 -4
4 -10z m-40 -150 c0 -5 -4 -10 -10 -10 -5 0 -10 5 -10 10 0 6 5 10 10 10 6 0
10 -4 10 -10z m40 0 c0 -5 -5 -10 -11 -10 -5 0 -7 5 -4 10 3 6 8 10 11 10 2 0
4 -4 4 -10z m40 -40 c0 -5 -5 -10 -11 -10 -5 0 -7 5 -4 10 3 6 8 10 11 10 2 0
4 -4 4 -10z m180 -70 c0 -5 -4 -10 -10 -10 -5 0 -10 5 -10 10 0 6 5 10 10 10
6 0 10 -4 10 -10z m40 0 c0 -5 -4 -10 -10 -10 -5 0 -10 5 -10 10 0 6 5 10 10
10 6 0 10 -4 10 -10z m-510 -30 c0 -5 -4 -10 -9 -10 -6 0 -13 5 -16 10 -3 6 1
10 9 10 9 0 16 -4 16 -10z m-50 -10 c0 -5 -5 -10 -11 -10 -5 0 -7 5 -4 10 3 6
8 10 11 10 2 0 4 -4 4 -10z m215 0 c3 -5 1 -10 -4 -10 -6 0 -11 5 -11 10 0 6
2 10 4 10 3 0 8 -4 11 -10z m385 0 c0 -5 -5 -10 -11 -10 -5 0 -7 5 -4 10 3 6
8 10 11 10 2 0 4 -4 4 -10z m-30 -31 c0 -14 -16 -11 -29 5 -10 12 -8 13 8 9
12 -3 21 -9 21 -14z m-505 -9 c3 -5 -1 -10 -9 -10 -9 0 -16 5 -16 10 0 6 4 10
9 10 6 0 13 -4 16 -10z m125 0 c0 -5 -5 -10 -11 -10 -5 0 -7 5 -4 10 3 6 8 10
11 10 2 0 4 -4 4 -10z m300 0 c0 -5 -5 -10 -11 -10 -5 0 -7 5 -4 10 3 6 8 10
11 10 2 0 4 -4 4 -10z m105 -40 c3 -5 -1 -10 -10 -10 -9 0 -13 5 -10 10 3 6 8
10 10 10 2 0 7 -4 10 -10z m-518 -16 c-3 -3 -12 -4 -19 -1 -8 3 -5 6 6 6 11 1
17 -2 13 -5z m-337 -14 c0 -5 -4 -10 -10 -10 -5 0 -10 5 -10 10 0 6 5 10 10
10 6 0 10 -4 10 -10z m150 0 c0 -5 -5 -10 -11 -10 -5 0 -7 5 -4 10 3 6 8 10
11 10 2 0 4 -4 4 -10z m70 0 c0 -5 -4 -10 -10 -10 -5 0 -10 5 -10 10 0 6 5 10
10 10 6 0 10 -4 10 -10z m600 0 c0 -5 -4 -10 -10 -10 -5 0 -10 5 -10 10 0 6 5
10 10 10 6 0 10 -4 10 -10z m-510 -30 c0 -5 -4 -10 -10 -10 -5 0 -10 5 -10 10
0 6 5 10 10 10 6 0 10 -4 10 -10z m550 6 c0 -11 -19 -15 -25 -6 -3 5 1 10 9
10 9 0 16 -2 16 -4z m-835 -16 c3 -5 1 -10 -4 -10 -6 0 -11 5 -11 10 0 6 2 10
4 10 3 0 8 -4 11 -10z m600 0 c3 -5 1 -10 -4 -10 -6 0 -11 5 -11 10 0 6 2 10
4 10 3 0 8 -4 11 -10z m85 0 c0 -5 -5 -10 -11 -10 -5 0 -7 5 -4 10 3 6 8 10
11 10 2 0 4 -4 4 -10z m65 0 c3 -5 1 -10 -4 -10 -6 0 -11 5 -11 10 0 6 2 10 4
10 3 0 8 -4 11 -10z m-705 -24 c0 -3 -4 -8 -10 -11 -5 -3 -10 -1 -10 4 0 6 5
11 10 11 6 0 10 -2 10 -4z m250 -6 c0 -5 -4 -10 -10 -10 -5 0 -10 5 -10 10 0
6 5 10 10 10 6 0 10 -4 10 -10z m538 3 c-10 -2 -28 -2 -40 0 -13 2 -5 4 17 4
22 1 32 -1 23 -4z m-748 -43 c0 -5 -4 -10 -10 -10 -5 0 -10 5 -10 10 0 6 5 10
10 10 6 0 10 -4 10 -10z m340 0 c0 -5 -2 -10 -4 -10 -3 0 -8 5 -11 10 -3 6 -1
10 4 10 6 0 11 -4 11 -10z m-130 -40 c0 -5 -4 -10 -10 -10 -5 0 -10 5 -10 10
0 6 5 10 10 10 6 0 10 -4 10 -10z m90 0 c0 -5 -4 -10 -10 -10 -5 0 -10 5 -10
10 0 6 5 10 10 10 6 0 10 -4 10 -10z m-70 -40 c0 -5 -7 -10 -15 -10 -8 0 -15
5 -15 10 0 6 7 10 15 10 8 0 15 -4 15 -10z m-310 -24 c0 -3 -4 -8 -10 -11 -5
-3 -10 -1 -10 4 0 6 5 11 10 11 6 0 10 -2 10 -4z m40 0 c0 -3 -4 -8 -10 -11
-5 -3 -10 -1 -10 4 0 6 5 11 10 11 6 0 10 -2 10 -4z m286 -21 c17 -16 14 -18
-10 -9 -9 3 -16 10 -16 15 0 13 9 11 26 -6z m-49 -11 c-3 -3 -12 -4 -19 -1 -8
3 -5 6 6 6 11 1 17 -2 13 -5z m-462 -24 c3 -5 -1 -10 -10 -10 -9 0 -13 5 -10
10 3 6 8 10 10 10 2 0 7 -4 10 -10z m475 -19 c0 -5 -7 -11 -15 -15 -15 -5 -20
5 -8 17 9 10 23 9 23 -2z m-515 -11 c3 -5 -1 -10 -9 -10 -9 0 -16 5 -16 10 0
6 4 10 9 10 6 0 13 -4 16 -10z m155 0 c0 -5 -4 -10 -10 -10 -5 0 -10 5 -10 10
0 6 5 10 10 10 6 0 10 -4 10 -10z m40 0 c0 -5 -5 -10 -11 -10 -5 0 -7 5 -4 10
3 6 8 10 11 10 2 0 4 -4 4 -10z m-410 -40 c0 -5 -5 -10 -11 -10 -5 0 -7 5 -4
10 3 6 8 10 11 10 2 0 4 -4 4 -10z m240 0 c0 -5 -4 -10 -10 -10 -5 0 -10 5
-10 10 0 6 5 10 10 10 6 0 10 -4 10 -10z m60 0 c0 -5 -5 -10 -11 -10 -5 0 -7
5 -4 10 3 6 8 10 11 10 2 0 4 -4 4 -10z m120 0 c0 -5 -10 -15 -22 -21 l-23
-12 20 21 c23 24 25 25 25 12z m-193 -56 c-3 -3 -12 -4 -19 -1 -8 3 -5 6 6 6
11 1 17 -2 13 -5z m-157 -14 c0 -5 -4 -10 -10 -10 -5 0 -10 5 -10 10 0 6 5 10
10 10 6 0 10 -4 10 -10z m110 6 c0 -3 -4 -8 -10 -11 -5 -3 -10 -1 -10 4 0 6 5
11 10 11 6 0 10 -2 10 -4z m80 -6 c0 -5 -4 -10 -10 -10 -5 0 -10 5 -10 10 0 6
5 10 10 10 6 0 10 -4 10 -10z m24 -60 c-29 -30 -56 -42 -35 -16 9 11 9 15 -1
19 -7 2 -5 3 5 1 9 -1 25 8 35 21 9 13 19 19 21 13 1 -5 -10 -22 -25 -38z
m-259 20 c3 -5 1 -10 -4 -10 -6 0 -11 5 -11 10 0 6 2 10 4 10 3 0 8 -4 11 -10z
m125 -30 c0 -5 -2 -10 -4 -10 -3 0 -8 5 -11 10 -3 6 -1 10 4 10 6 0 11 -4 11
-10z m65 0 c-3 -5 -10 -10 -16 -10 -5 0 -9 5 -9 10 0 6 7 10 16 10 8 0 12 -4
9 -10z m-215 -10 c0 -5 -5 -10 -11 -10 -5 0 -7 5 -4 10 3 6 8 10 11 10 2 0 4
-4 4 -10z m215 -40 c3 -5 -1 -10 -10 -10 -9 0 -13 5 -10 10 3 6 8 10 10 10 2
0 7 -4 10 -10z m-30 -21 c11 -17 -1 -21 -15 -4 -8 9 -8 15 -2 15 6 0 14 -5 17
-11z m-185 -79 c0 -5 -2 -10 -4 -10 -3 0 -8 5 -11 10 -3 6 -1 10 4 10 6 0 11
-4 11 -10z m110 0 c0 -5 -2 -10 -4 -10 -3 0 -8 5 -11 10 -3 6 -1 10 4 10 6 0
11 -4 11 -10z m-80 -74 c0 -3 -4 -8 -10 -11 -5 -3 -10 -1 -10 4 0 6 5 11 10
11 6 0 10 -2 10 -4z m-30 -29 c0 -2 -10 -12 -21 -23 -22 -19 -22 -19 -10 4 10
18 31 31 31 19z"/>
<path d="M3083 2329 c-22 -8 -23 -13 -25 -144 -1 -74 -2 -145 -2 -157 -1 -21
3 -23 54 -23 l55 0 3 154 c1 92 -1 158 -7 164 -14 14 -51 17 -78 6z"/>
<path d="M3692 2281 c-7 -4 -10 -14 -8 -22 5 -14 7 -32 22 -184 4 -38 11 -76
17 -82 6 -9 6 -13 -2 -13 -8 0 -9 -5 -2 -18 5 -10 13 -59 16 -108 4 -49 11
-92 17 -95 6 -4 5 -9 -3 -12 -12 -5 -12 -7 -1 -15 9 -6 12 -24 9 -55 -5 -52
12 -79 36 -58 8 6 17 7 22 3 4 -4 5 2 2 13 -4 11 -8 37 -11 57 -2 21 -7 41
-10 46 -3 5 -8 31 -11 58 -2 27 -8 72 -11 99 -4 28 -7 58 -7 68 -1 9 -5 17 -9
17 -4 0 -6 8 -6 18 1 16 -3 46 -18 165 -3 26 -11 47 -16 47 -6 0 -5 6 2 15 8
9 8 15 2 15 -6 0 -12 11 -14 25 -2 17 -7 22 -16 16z"/>
<path d="M2177 2313 c-4 -3 -7 -37 -7 -75 0 -66 1 -68 25 -68 14 0 25 6 26 13
0 6 2 40 5 75 4 60 4 62 -19 62 -13 0 -27 -3 -30 -7z"/>
<path d="M2577 3280 c-30 -22 -58 -40 -62 -40 -3 0 -25 -12 -48 -27 -23 -16
-51 -33 -62 -40 -106 -64 -212 -129 -220 -136 -24 -18 -136 -87 -143 -87 -4 0
-15 -7 -25 -15 -17 -12 -17 -17 -6 -49 7 -20 17 -36 21 -36 5 0 41 24 81 54
l72 54 85 -4 c47 -3 110 -7 140 -11 30 -3 73 -7 95 -8 22 -1 82 -5 134 -10 52
-4 92 -4 89 1 -49 102 -58 125 -53 134 3 5 2 10 -3 10 -20 0 -33 180 -16 233
9 28 -18 20 -79 -23z"/>
<path d="M1564 1621 c4 -6 15 -11 24 -11 25 0 283 -74 312 -90 24 -13 91 -62
118 -87 7 -7 17 -13 21 -13 4 0 17 -8 28 -17 11 -10 35 -29 54 -43 18 -14 47
-37 63 -51 17 -14 63 -47 101 -74 39 -26 72 -51 75 -54 13 -15 131 -101 140
-101 5 0 13 -6 17 -13 4 -8 42 -38 83 -67 41 -30 91 -67 110 -82 19 -16 40
-32 45 -36 6 -4 27 -19 47 -34 20 -16 39 -28 43 -28 3 0 16 -9 28 -21 28 -26
21 -21 367 -278 162 -121 300 -224 305 -228 6 -5 25 -19 43 -32 l34 -23 40 38
c22 22 70 75 106 119 112 134 116 139 145 166 15 15 27 30 27 34 0 4 19 26 42
49 24 23 57 59 75 81 17 22 46 55 63 74 18 19 60 66 93 105 33 39 78 89 98
111 21 22 47 52 59 67 11 15 39 46 60 70 22 23 40 45 40 49 0 3 26 33 58 65
31 33 76 83 100 111 36 44 53 55 100 69 31 9 65 20 75 25 10 6 22 7 27 4 5 -3
11 -1 15 5 4 6 10 8 14 6 4 -3 41 6 82 19 l74 25 -90 -5 c-49 -3 -139 -8 -200
-11 l-110 -6 -85 -87 c-131 -134 -627 -647 -702 -726 -163 -173 -225 -235
-232 -235 -8 0 -98 59 -221 145 -363 255 -465 326 -635 447 -63 45 -149 104
-190 133 -41 28 -97 67 -125 86 -27 19 -94 66 -149 105 -54 38 -128 89 -165
114 -36 26 -90 63 -120 84 -59 42 -53 41 -280 51 -111 5 -152 4 -147 -4z"/>
</g>
</svg>
