<svg version="1" xmlns="http://www.w3.org/2000/svg" width="682.667" height="682.667" viewBox="0 0 512.000000 512.000000"><path d="M315.2 84.1c-6.1 1.5-4.7 2 2.2.9 3.2-.5 7.2-.7 8.9-.3 6.9 1.3 15.7 8.5 15.7 12.9 0 2.2-.4 2.4-4.7 2.4-4.2 0-5-.4-6.4-2.9-1.1-1.9-2.7-3-5.1-3.4-9.4-1.5-18.3 3.7-21.7 12.9-3.7 9.9-2.3 17 4.6 23.5 8.6 8.1 22.3 9.2 26.6 2.2.5-.8 2.8-1.3 6.2-1.3 4.9 0 5.5.2 5.5 2 0 1.2-2 4-4.3 6.3-3.9 3.7-8.4 5.9-16.7 8-.8.2 1.4.6 5 1 9.4.9 24.1 6.7 33.5 13.1 8.9 6.2 19.5 19.2 22.2 27.4.9 2.6 2.1 5.3 2.7 6.1.6.7 1.1 5.8 1.1 11.5 0 8.2-.4 11.2-2.3 16C384 233.2 374 245 369 245c-6.1 0-9.6-3-5.1-4.5 3.3-1 11.5-9.9 14.4-15.5 5.5-10.6 5.3-25.7-.5-37.7-3.1-6.5-11.7-16.3-18.4-20.9-22.2-15.6-55-15.8-73.5-.6-6.4 5.2-12.4 14-13.9 20.4-2.8 12.4.1 27.7 7.2 37.3 5 6.8 16 16.5 18.7 16.5 1.1 0 2.2 2.6 1.4 3.4-.4.3-2.4.6-4.5.6-4.4 0-12.1-5.1-17.9-11.8l-3.4-4-17.5-1.1c-9.6-.6-20.5-1.3-24.2-1.6l-6.7-.5-.3 14.7-.3 14.8-4.8.3c-4.5.3-4.7.2-4.3-2 .3-1.3.8-7.2 1.1-13.2.5-8.8.4-10.7-.7-10-.7.4-4.4 2.9-8.3 5.4-8.6 5.7-24.9 16.4-25.2 16.5 0 0-.4 3-.8 6.7l-.7 6.8 2.8-.6c1.6-.3 9-1.4 16.4-2.5 14.4-2.1 27.8-4.2 53.5-8.3 19-3.1 37.2-6 51-8 5.5-.8 14.1-2.3 19.1-3.2 5.1-.9 9.9-1.4 10.8-1.1 1 .4 1.6 1.8 1.6 3.6 0 3.3 0 3.3 10 5 13.8 2.4 28.3 5.1 29.9 5.6 1 .3 6.9 1.4 13.2 2.5 10.6 1.8 25.7 4.5 47.4 8.5 18.2 3.3 29 5.6 29.9 6.5.5.5 1.7 4.4 2.7 8.7 1 4.3 3 12.1 4.4 17.3 2.9 10.8 5.4 20.2 8.8 34.1 1.3 5.3 2.7 10.1 3.1 10.7 1.4 2.3-4.6 3.2-20.4 3.2h-15.9L438 357.7l-11.1 10.7-12.2-.3-12.2-.2-4.2 4.4c-2.3 2.5-4.8 4.9-5.6 5.4-.8.4-5.3 4.4-9.9 8.8-4.6 4.4-12.1 11.4-16.7 15.5s-9.6 8.5-11 9.8c-2.4 2.2-2.6 2.2-3.3.5-.4-1-1.7-11.3-2.8-22.8-3.3-34.9-5.9-60.8-6.5-64.5-.3-1.9-1.4-12.5-2.5-23.5-2.9-30.2-5.2-52-5.5-52.3-.3-.4-13.3 1.3-38 4.8-7.1 1-21.5 3-32 4.5-10.4 1.4-25.1 3.5-32.5 4.5-7.4 1.1-21.6 3-31.5 4.4-23.8 3.3-30.6 4.4-31.2 4.9-.2.3-1.3 5.8-2.3 12.4-1.1 6.5-3.1 18.3-4.5 26.3s-3.1 18-3.9 22.3l-1.3 7.7h19.8c14.6 0 20.1.3 21.1 1.3.7.7 4.5 3.2 8.3 5.5 12.3 7.6 33 20.8 35 22.5.6.4 3.5 2.3 6.5 4.2 3 1.9 6 3.9 6.7 4.5.7.5 1.5 1 1.8 1 .3 0 3.6 2 7.3 4.3 3.7 2.4 9.6 6.2 13.2 8.5 3.6 2.3 7 4.5 7.6 5 .5.5 2.1 1.5 3.4 2.2 1.3.7 2.9 1.7 3.4 2.2.6.5 3.6 2.4 6.6 4.3 3 1.9 6 3.8 6.6 4.4.6.5 2.4 1.6 4 2.4 2.4 1.2 12.8 7.9 18.4 11.7.8.6 4 2.6 7 4.5s6.2 3.9 7 4.5c9.8 6.6 12.3 7.9 13.9 6.7 2.1-1.5 9.4-8.2 14.1-12.7 9.4-9.1 47.7-45 52.4-49.1 2.2-1.9 8.7-8 14.5-13.6 5.8-5.6 11.5-10.6 12.6-11.2 2.1-.9 28.2-3.1 37.8-3.1 3.1 0 5.7-.3 5.7-.8 0-.4-.7-3.2-1.6-6.2-1.5-5.5-4.8-17.5-8.4-30.5-1-3.9-3.1-11.3-4.5-16.5-1.5-5.2-3.5-12.4-4.5-16-3.9-13.6-2.6-12.4-15.8-15.5-18.5-4.3-28.7-6.8-29.1-7.1-.3-.3-1.9-7.7-4.1-19.4-2-10.4-1.6-9.8-6.3-10.4-2.3-.3-8.3-1.1-13.3-1.7l-9.2-1.2-.3-15.7c-.3-9.5-.8-16.2-1.5-17.1-.6-.8-1.9-3.8-2.8-6.7-1-2.8-2.2-5.2-2.7-5.2s-.9-.5-.9-1.1c0-1.5-6.6-10.4-10.7-14.6-4.3-4.2-12.6-10.3-18.3-13.3-6.6-3.6-7-4-6.1-5.8 1.5-3 6.1-17.9 6.1-19.9 0-1.7-6.3-15.8-11-24.5-1.1-2-2-4.2-2-4.8 0-2.2-6.2-10-9.1-11.6-3.8-1.9-15-2.6-20.7-1.3zm21.8 79.5c5.5 2.9 10 8.2 10 11.5 0 1.6-.8 1.9-5.9 1.9-5.2 0-6.1-.3-6.6-2.1-.8-2.3-6-4.9-9.8-4.9-7.9 0-17.3 6.4-21.1 14.5-3.2 6.7-3.3 12.1-.5 19.5 2.6 6.9 5.6 10.1 12.8 13.7 4.6 2.2 7 2.7 13.4 2.8 7.4 0 8-.2 10.3-2.8 3.3-3.9 3-4.7-1.6-4.7h-4v-10h25.1l-.3 4.7c-.3 4.1-.6 4.8-2.5 5.1-2.2.3-2.3.7-2.3 10.3v9.9h-6.4c-3.5 0-6.6-.5-6.8-1-.2-.7-2.9-.7-8.3.1-9.2 1.3-20.6-.1-26.5-3.1-8.5-4.4-19.8-19.8-20.2-27.4-.6-14.2 2-21.3 11.2-30 9.8-9.2 15.9-11.7 27.6-11.2 5.5.2 8.2.9 12.4 3.2zm71.6 67.9l10 .7 1.3 5.1c2.1 9.1 3.8 19.7 3.2 20.1-.3.2-1.8.2-3.3-.1-3.1-.6-4.2-3.4-5.4-13.9l-.6-6.1-6.1-.7c-3.3-.3-8.4-.6-11.3-.6-5.6 0-6.2-.6-4.3-4.1.8-1.5 1.7-1.9 3.7-1.5 1.5.3 7.2.8 12.8 1.1zm-85.8 37.3c5.7 6.9 6.7 10.2 8.2 27 1.1 11.7 1 12.5-.9 15.8-1.2 1.9-2.1 4.1-2.1 4.7 0 .7 1.7 4.6 3.9 8.7 3.6 7 3.9 8.4 5.1 21.5 3 33.6 3.5 40.5 2.7 40.5-.7 0-20.3-10.7-20.8-11.4-.1 0-.6-10.2-1.3-22.6l-1.1-22.4-6.5-2.2-6.5-2.1-.7 9.1c-.3 5-.7 13-.8 17.9-.2 4.8-.6 9-1 9.2-.7.5-12.6-5.7-14.1-7.3-.6-.6.3-29.7 1.5-50.7.3-5 .9-15.7 1.2-23.8.5-11.2 1-15 2-15.4.7-.3 5.5-.8 10.6-1.3 16.7-1.3 15.2-1.7 20.6 4.8zm-44.1 6.4c-.4 4.6-1 18.9-1.3 31.7-.8 26.2-.5 25.1-8.7 29.4l-3.5 1.9-7.9-3.9c-6.1-2.9-8.5-4.7-10.5-7.8l-2.6-4 1-24.5c.5-13.5 1.3-24.9 1.7-25.3.5-.5 3.4-1.1 6.5-1.4l5.6-.6-.6 12.4c-.3 6.8-.9 17.4-1.3 23.6-.6 10.9-.6 11.2 1.5 11.7 1.2.3 2.9.9 3.8 1.2 1.3.5 1.6-.2 1.6-4.7 0-5.8 1.8-35.6 2.6-42.6.5-4 .7-4.2 4.2-4.6 9.4-1 8.6-1.7 7.9 7.5zm-46.9-.5c4 2.5 4.2 3.1 4.2 10.9 0 6.2-.3 7.5-2.7 10.7-3.1 3.9-4.8 4.7-11 4.7-4.6 0-4.7.1-5.8 8-.4 2.5-1.4 6.6-2.2 9.2l-1.5 4.8h-11l.7-5.8c.4-3.1 1.3-9.3 2.1-13.7.8-4.4 2.1-12.3 3-17.4.8-5.2 1.7-9.7 1.9-10 .5-.5 13.7-2.8 17.3-3 1.2 0 3.5.7 5 1.6z"/><path d="M304.6 285.6c-.3 2.6-.6 8.9-.6 14v9.4h9v-28h-3.9c-3.8 0-3.8 0-4.5 4.6zM219 287.5c0 4.2.3 5.5 1.5 5.5s1.5-1.3 1.5-5.5-.3-5.5-1.5-5.5-1.5 1.3-1.5 5.5zM302.5 89c-2.6 1-9.1 5.2-12.8 8.2-4 3.3-7.6 10.3-9.2 17.8-.7 3.6-1.8 8.3-2.4 10.5-1.4 5.4-1.3 9.5.2 12.6.8 1.4 2.1 4.6 3 7.2 1.8 5.3 2 5-5.8 9.9-8.8 5.5-14 8.8-15.5 9.8-10.1 6.8-12.5 7.9-14.9 7.2-3.9-1-27.9-.6-33.1.6-14.4 3.4-16.2 4.1-21.8 8.7-4.8 4-20.8 18.3-26.3 23.6-.9.9-6.3 5.9-12 11.1-5.7 5.3-12.6 11.5-15.3 14l-4.8 4.5 3.4-.1c2.5-.1 4.8-1.3 8.4-4.3 4.3-3.7 13.7-9.1 18.5-10.6 1.2-.4 1.9-2.3 2.4-6.4l.7-5.8 14.3-11.5c7.9-6.3 14.9-11.6 15.5-11.8.9-.3 1 3.1.6 13.9-.4 7.9-.9 15.8-1.2 17.6-.4 2.8-.1 3.4 2.7 4.8 3.1 1.7 4.8 1 4.9-1.9 0-3.7 16.1-19 26.5-25.3 6.4-3.9 10.9-6.3 11.6-6.3 1.4 0-.2 2.9-1.9 3.5-1 .3-4.2 2.8-7.2 5.6s-7.2 6.2-9.3 7.6c-2 1.4-3.5 2.8-3.3 3 .2.3 2.6-1.1 5.3-3 2.7-1.9 6.4-4.2 8.3-5.2 1.8-.9 3.8-2.1 4.4-2.6 1.6-1.3 8.6-5.9 9-5.9.2 0 3.3-1.8 6.7-4 3.5-2.2 8.1-4.9 10.1-6 2.1-1.1 5.4-4.5 7.7-7.8 8.7-12.7 21.5-20.6 38.6-23.7 3.9-.7 6-1.3 4.9-1.4-3.1-.1-9.4-2.9-13.1-5.7-1.8-1.4-5.1-5.6-7.4-9.4-3.9-6.6-4.1-7.3-4.1-15.2 0-4.6.5-9.6 1.1-11.1 2.1-5.4 7.3-11.9 11.9-14.8 4.5-2.8 4.7-3.6.7-1.9zm-57.9 88.2c.8 1.2-1.8 3.5-15.1 13.3-4.5 3.3-13.1 9.7-19 14.2-6 4.6-11.4 8.3-12 8.3-.9 0-1.1-3.9-.7-14.8.5-15.9 1.2-19.2 3.9-19.2 1 0 3.6-.7 5.8-1.5 5.1-1.8 36-2.1 37.1-.3z"/><path d="M215 188.7c-1.4.2-4.2.9-6.2 1.4l-3.8 1v12l7.8-6.2c11.4-9.2 11.2-8.9 7.7-8.8-1.7.1-4.1.4-5.5.6zM255.5 192.6c-3.8 2.4-8.6 5.3-10.5 6.4-1.9 1.2-7.1 4.3-11.5 7-9.9 6.1-21.6 13-25.7 15.2-4.6 2.5-5 3.2-3.9 6.1l1 2.7 6.6-5c5.7-4.3 7.2-5 11.2-5 4.5 0 35.1 1.7 42.9 2.4l4.1.3-1.7-3.6c-3.8-7.9-5.2-13.7-5.2-22.4 0-4.8-.1-8.7-.2-8.6 0 0-3.2 2-7.1 4.5zM183.5 202c-2.2 1.6-4.4 3.3-5 3.8-.5.4-2.5 1.7-4.3 2.8l-3.4 1.9 6.4.5 6.3.5.6 5c.3 2.7.7 4.8.9 4.5.3-.6 2.8-21.4 2.6-21.7-.1-.1-1.9 1.2-4.1 2.7zM166.1 346.4c.3.3 4.3 1.5 9 2.7 13.9 3.4 16.4 4.5 27.5 12.6 5.8 4.3 12 8.8 13.8 10 13.2 9.5 33.7 24.4 36.7 26.7 1.5 1.2 3.7 2.9 5 3.8 1.3.9 6.6 4.7 11.7 8.5 5.1 3.7 12.4 9 16.3 11.8 3.9 2.7 7.8 5.7 8.8 6.5 1 .8 5.1 3.8 9 6.5 8.5 5.9 28.4 20.7 29.1 21.6.3.3 1.4 1.1 2.6 1.7 1.2.6 6.1 4.1 11 7.8 4.9 3.6 9.4 6.8 10.1 7.1 1.1.4 8.7-7.1 17.9-17.7 4.7-5.4 3.9-4.5 14.5-16.1 4.7-5.2 11.9-13.2 16-17.9 4.1-4.6 10.8-12.1 14.9-16.5 4.1-4.5 10.2-11.2 13.5-15 3.3-3.8 6.9-7.9 8-9.1 1.1-1.1 5.4-5.8 9.6-10.5 8.4-9.2 8.3-9.2 27.9-13.6l8.5-2-10.5.5c-5.8.2-12.1.8-14 1.3-1.9.5-5.1.9-7 .9-3.3-.1-6.2 2.7-52.1 49.1-47.2 47.8-48.6 49.1-51 47.9-1.3-.7-2.6-1.6-2.9-1.9-.3-.4-5-3.6-10.5-7.3-18.5-12.4-22-14.8-23.1-15.7-.6-.4-3.7-2.6-7-4.7-3.2-2.1-6.1-4.1-6.4-4.4-.3-.3-5-3.5-10.5-7.2s-13.2-8.9-17.1-11.6c-3.9-2.7-14-9.6-22.5-15.4-8.5-5.7-19.7-13.4-24.9-17-5.2-3.6-13.1-8.9-17.5-11.9s-8.2-5.6-8.5-5.9c-.3-.3-2.2-1.5-4.2-2.7-3.1-1.8-6-2.3-18-2.9-7.9-.3-14-.4-13.7 0z"/></svg>